<?xml version="1.0" encoding="UTF-8"?>
<svg id="Layer_2" data-name="Layer 2" xmlns="http://www.w3.org/2000/svg" viewBox="0 0 903.81 187.51">
  <defs>
    <style>
      .cls-1 {
        fill: #1d1d1b;
      }
    </style>
  </defs>
  <g id="Artwork">
    <g>
      <g>
        <path class="cls-1" d="m131.88,55.5h45.23s0,2.59,0,2.59h-15.51s23.82,57.97,23.82,57.97l24.92-57.97h-15.33s0-2.59,0-2.59h28.25s0,2.59,0,2.59h-9.97s-30.46,71.27-30.46,71.27c-2.34,5.29-4.55,10.62-6.65,15.97-2.09,5.36-4.18,10.74-6.28,16.15-1.73,4.43-3.45,8.31-5.17,11.63-1.73,3.32-3.54,6.03-5.45,8.12-1.91,2.09-3.97,3.66-6.19,4.71-2.22,1.04-4.8,1.57-7.76,1.57-3.57,0-6.43-.55-8.58-1.66-2.16-1.11-3.85-2.4-5.08-3.88-1.23-1.48-2.03-3.02-2.4-4.62-.37-1.6-.56-2.96-.56-4.06,0-3.08.86-5.38,2.59-6.92,1.72-1.54,3.81-2.31,6.28-2.31.86,0,1.78.09,2.77.28.98.19,1.91.52,2.77,1.02s1.6,1.17,2.22,2.03c.62.86.93,1.91.93,3.14,0,1.72-.53,3.35-1.57,4.89-1.05,1.54-1.57,3.23-1.57,5.08,0,1.6.43,2.65,1.29,3.14.86.49,2.03.74,3.51.74,1.97,0,3.79-.46,5.45-1.39,1.66-.92,3.29-2.43,4.89-4.52,1.6-2.09,3.2-4.83,4.8-8.22,1.6-3.39,3.39-7.54,5.36-12.46l8.12-20.68-31.94-79.02h-12.74s0-2.59,0-2.59Z"/>
        <path class="cls-1" d="m271.07,1.59h30.1s0,130.53,0,130.53h14.22s0,2.59,0,2.59h-29.73s0-16.06,0-16.06h-.37c-.49,1.47-1.23,3.26-2.22,5.35-.99,2.09-2.43,4.13-4.34,6.09-1.91,1.97-4.31,3.66-7.2,5.08-2.89,1.41-6.43,2.12-10.62,2.12-5.42,0-10.56-1.17-15.42-3.51-4.86-2.34-9.14-5.48-12.83-9.42-3.69-3.94-6.62-8.46-8.77-13.57-2.15-5.11-3.23-10.49-3.23-16.15,0-5.54,1.04-10.83,3.14-15.88,2.09-5.05,4.92-9.44,8.49-13.2,3.57-3.75,7.69-6.77,12.37-9.05,4.68-2.28,9.66-3.42,14.95-3.42,6.77,0,12.25,1.66,16.43,4.99,4.18,3.32,7.14,7.38,8.86,12.18h.37s0-66.1,0-66.1h-14.22s0-2.59,0-2.59Zm-31.94,90.84c0,6.4.19,12.22.56,17.45.37,5.23,1.29,9.69,2.77,13.39,1.47,3.69,3.69,6.52,6.65,8.49,2.95,1.97,6.95,2.96,12,2.96,5.17,0,9.32-1.11,12.46-3.32,3.14-2.22,5.57-5.08,7.29-8.59,1.72-3.51,2.89-7.41,3.51-11.72.62-4.31.92-8.49.92-12.55,0-4.8-.09-8.96-.27-12.46-.19-3.51-.53-6.61-1.02-9.32-.49-2.71-1.17-5.05-2.03-7.02-.86-1.97-1.91-3.81-3.14-5.54-1.85-2.46-4.25-4.49-7.2-6.09-2.96-1.6-6.71-2.4-11.26-2.4-4.31,0-7.85.86-10.62,2.59-2.77,1.72-4.92,4.18-6.46,7.38-1.54,3.2-2.62,7.05-3.23,11.54-.62,4.49-.93,9.57-.93,15.23Z"/>
        <path class="cls-1" d="m320.92,132.12h14.22s0-74.03,0-74.03h-14.22s0-2.59,0-2.59h29.73s0,18.65,0,18.65h.37c.49-1.84,1.29-3.94,2.4-6.28,1.11-2.34,2.65-4.58,4.62-6.74,1.97-2.15,4.34-3.97,7.11-5.45,2.77-1.48,6.12-2.22,10.06-2.22,2.83,0,5.29.46,7.39,1.38,2.09.93,3.81,2.1,5.17,3.51,1.35,1.42,2.34,3.05,2.96,4.89.61,1.85.92,3.69.92,5.54,0,4.06-.92,6.77-2.77,8.12-1.84,1.36-4,2.03-6.46,2.03-5.42,0-8.12-1.72-8.12-5.17,0-1.11.12-2,.37-2.67.25-.68.52-1.35.83-2.03.3-.67.58-1.44.83-2.31.25-.86.37-2.09.37-3.69,0-3.94-2.15-5.91-6.46-5.91-1.97,0-4.06.74-6.28,2.22-2.22,1.47-4.28,3.63-6.18,6.46-1.91,2.83-3.51,6.25-4.8,10.25-1.29,4-1.94,8.59-1.94,13.76v42.28s16.06,0,16.06,0v2.59s-46.16,0-46.16,0v-2.59Z"/>
        <path class="cls-1" d="m474.71,132.68c-1.6,1.23-3.51,2.31-5.73,3.23s-4.92,1.39-8.12,1.39c-5.91,0-10.19-1.26-12.83-3.79-2.65-2.52-4.46-6.06-5.45-10.62h-.37c-.49,1.11-1.17,2.49-2.03,4.15-.86,1.66-2.19,3.26-3.97,4.8-1.78,1.54-4.15,2.83-7.11,3.88-2.96,1.04-6.71,1.57-11.26,1.57-5.17,0-9.3-.59-12.37-1.76-3.08-1.17-5.48-2.61-7.2-4.34-1.73-1.72-2.86-3.66-3.42-5.82-.56-2.15-.83-4.16-.83-6,0-4.31.86-7.76,2.58-10.34,1.72-2.59,3.97-4.64,6.74-6.19,2.77-1.54,5.84-2.8,9.23-3.79,3.38-.98,6.8-2.03,10.25-3.14,4.06-1.35,7.41-2.52,10.06-3.51,2.65-.98,4.71-2.18,6.19-3.6,1.47-1.41,2.49-3.2,3.05-5.36.56-2.15.83-5.08.83-8.77,0-2.96-.19-5.6-.55-7.94-.37-2.34-1.05-4.34-2.03-6-.99-1.66-2.4-2.92-4.25-3.78-1.84-.86-4.31-1.29-7.39-1.29-4.06,0-7.41.71-10.06,2.12-2.65,1.42-3.97,3.72-3.97,6.92,0,2.09.19,4.16.56,6.19.37,2.03.55,3.54.55,4.52,0,1.73-.62,3.17-1.84,4.34-1.23,1.17-3.02,1.76-5.36,1.76-4.06,0-6.58-.74-7.57-2.22-.99-1.48-1.48-3.38-1.48-5.72,0-2.71.61-5.29,1.84-7.76,1.23-2.46,3.05-4.64,5.45-6.55,2.4-1.91,5.41-3.42,9.05-4.53,3.63-1.11,7.78-1.66,12.46-1.66,5.66,0,10.4.71,14.22,2.12,3.81,1.42,6.89,3.32,9.23,5.72,2.34,2.4,4,5.11,4.99,8.12.98,3.02,1.47,6.19,1.47,9.51v45.97c0,3.57.56,5.97,1.66,7.2,1.11,1.23,2.71,1.85,4.8,1.85,1.35,0,2.77-.25,4.25-.74,1.48-.49,2.89-1.23,4.25-2.22l1.48,2.03Zm-32.31-43.2h-.37c-.25,1.6-2.28,3.2-6.09,4.8l-13.85,5.54c-3.94,1.6-6.95,3.85-9.05,6.74-2.1,2.89-3.14,6.49-3.14,10.8,0,1.84.19,3.75.56,5.72.37,1.97,1.04,3.72,2.03,5.26.98,1.54,2.37,2.8,4.16,3.79,1.78.99,4.09,1.48,6.92,1.48,4.06,0,7.35-.86,9.88-2.59,2.52-1.72,4.43-3.88,5.73-6.46,1.29-2.59,2.15-5.38,2.58-8.4.43-3.02.65-5.75.65-8.22v-18.46Z"/>
        <path class="cls-1" d="m0,132.12h20.49V5.88H0v-2.58h59.43v2.58h-20.49v60.35h61.46V5.88h-20.49v-2.58h59.43v2.58h-20.49v126.24h20.49v2.58h-59.43v-2.58h20.49v-63.31h-61.46v63.31h20.49v2.58H0v-2.58Z"/>
        <path class="cls-1" d="m614.72,132.68c-1.6,1.23-3.51,2.31-5.73,3.23-2.22.92-4.92,1.39-8.12,1.39-5.91,0-10.19-1.26-12.83-3.79-2.65-2.52-4.46-6.06-5.45-10.62h-.37c-.49,1.11-1.17,2.49-2.03,4.15-.86,1.66-2.19,3.26-3.97,4.8-1.78,1.54-4.15,2.83-7.11,3.88-2.96,1.04-6.71,1.57-11.26,1.57-5.17,0-9.3-.59-12.37-1.76-3.08-1.17-5.48-2.61-7.2-4.34-1.73-1.72-2.86-3.66-3.42-5.82-.56-2.15-.83-4.16-.83-6,0-4.31.86-7.76,2.58-10.34,1.72-2.59,3.97-4.64,6.74-6.19,2.77-1.54,5.84-2.8,9.23-3.79,3.38-.98,6.8-2.03,10.25-3.14,4.06-1.35,7.41-2.52,10.06-3.51,2.65-.98,4.71-2.18,6.19-3.6,1.47-1.41,2.49-3.2,3.05-5.36.56-2.15.83-5.08.83-8.77,0-2.96-.19-5.6-.55-7.94-.37-2.34-1.05-4.34-2.03-6-.99-1.66-2.4-2.92-4.25-3.78-1.84-.86-4.31-1.29-7.39-1.29-4.06,0-7.41.71-10.06,2.12-2.65,1.42-3.97,3.72-3.97,6.92,0,2.09.19,4.16.56,6.19.37,2.03.55,3.54.55,4.52,0,1.73-.62,3.17-1.84,4.34-1.23,1.17-3.02,1.76-5.36,1.76-4.06,0-6.58-.74-7.57-2.22-.99-1.48-1.48-3.38-1.48-5.72,0-2.71.61-5.29,1.84-7.76,1.23-2.46,3.05-4.64,5.45-6.55,2.4-1.91,5.41-3.42,9.05-4.53,3.63-1.11,7.78-1.66,12.46-1.66,5.66,0,10.4.71,14.22,2.12,3.81,1.42,6.89,3.32,9.23,5.72,2.34,2.4,4,5.11,4.99,8.12.98,3.02,1.47,6.19,1.47,9.51v45.97c0,3.57.56,5.97,1.66,7.2,1.11,1.23,2.71,1.85,4.8,1.85,1.35,0,2.77-.25,4.25-.74,1.48-.49,2.89-1.23,4.25-2.22l1.48,2.03Zm-32.31-43.2h-.37c-.25,1.6-2.28,3.2-6.09,4.8l-13.85,5.54c-3.94,1.6-6.95,3.85-9.05,6.74-2.1,2.89-3.14,6.49-3.14,10.8,0,1.84.19,3.75.56,5.72.37,1.97,1.04,3.72,2.03,5.26.98,1.54,2.37,2.8,4.16,3.79,1.78.99,4.09,1.48,6.92,1.48,4.06,0,7.35-.86,9.88-2.59,2.52-1.72,4.43-3.88,5.73-6.46,1.29-2.59,2.15-5.38,2.58-8.4.43-3.02.65-5.75.65-8.22v-18.46Z"/>
        <path class="cls-1" d="m689.37,114.4c-.37,1.36-1.08,3.29-2.12,5.82-1.05,2.52-2.71,5.05-4.99,7.57-2.28,2.52-5.35,4.74-9.23,6.65-3.88,1.91-8.89,2.86-15.05,2.86-4.68,0-9.54-.74-14.59-2.22-5.05-1.48-9.66-3.85-13.85-7.11-4.18-3.26-7.6-7.54-10.25-12.83-2.65-5.29-3.97-11.82-3.97-19.57,0-6.03,1.14-11.63,3.42-16.8,2.28-5.17,5.36-9.66,9.23-13.48,3.88-3.81,8.43-6.8,13.66-8.96,5.23-2.15,10.8-3.23,16.71-3.23,3.32,0,6.74.4,10.25,1.2,3.51.8,6.71,2.03,9.6,3.69,2.89,1.66,5.29,3.82,7.2,6.46,1.91,2.65,2.86,5.88,2.86,9.69,0,2.59-.83,4.71-2.49,6.37-1.66,1.66-4.03,2.49-7.11,2.49-2.1,0-4.09-.46-6-1.39-1.91-.92-2.86-2.49-2.86-4.71,0-1.72.43-3.81,1.29-6.28.86-2.46,1.29-4.49,1.29-6.09,0-2.83-1.42-5.01-4.25-6.55-2.83-1.54-6.09-2.31-9.78-2.31-2.71,0-5.51.34-8.4,1.02-2.89.68-5.54,2.37-7.94,5.08-2.4,2.71-4.37,6.77-5.91,12.18-1.54,5.42-2.31,12.8-2.31,22.16,0,5.29.34,10.28,1.02,14.95.67,4.68,1.91,8.77,3.69,12.28,1.78,3.51,4.25,6.28,7.39,8.31,3.14,2.03,7.23,3.05,12.28,3.05,5.41,0,9.88-.8,13.39-2.4,3.51-1.6,6.28-3.54,8.31-5.82,2.03-2.28,3.54-4.58,4.52-6.92.98-2.34,1.72-4.25,2.22-5.72l2.77.55Z"/>
        <path class="cls-1" d="m695.79,132.12h14.22s0-74.03,0-74.03h-14.22s0-2.59,0-2.59h30.09s0,76.62,0,76.62h14.22s0,2.59,0,2.59h-44.31s0-2.59,0-2.59Z"/>
        <path class="cls-1" d="m827.58,132.68c-1.6,1.23-3.51,2.31-5.73,3.23-2.22.92-4.92,1.39-8.12,1.39-5.91,0-10.19-1.26-12.83-3.79-2.65-2.52-4.46-6.06-5.45-10.62h-.37c-.49,1.11-1.17,2.49-2.03,4.15-.86,1.66-2.19,3.26-3.97,4.8-1.78,1.54-4.15,2.83-7.11,3.88-2.96,1.04-6.71,1.57-11.26,1.57-5.17,0-9.3-.59-12.37-1.76-3.08-1.17-5.48-2.61-7.2-4.34-1.73-1.72-2.86-3.66-3.42-5.82-.56-2.15-.83-4.16-.83-6,0-4.31.86-7.76,2.58-10.34,1.72-2.59,3.97-4.64,6.74-6.19,2.77-1.54,5.84-2.8,9.23-3.79,3.38-.98,6.8-2.03,10.25-3.14,4.06-1.35,7.41-2.52,10.06-3.51,2.65-.98,4.71-2.18,6.19-3.6,1.47-1.41,2.49-3.2,3.05-5.36.56-2.15.83-5.08.83-8.77,0-2.96-.19-5.6-.55-7.94-.37-2.34-1.05-4.34-2.03-6-.99-1.66-2.4-2.92-4.25-3.78-1.84-.86-4.31-1.29-7.39-1.29-4.06,0-7.41.71-10.06,2.12-2.65,1.42-3.97,3.72-3.97,6.92,0,2.09.19,4.16.56,6.19.37,2.03.55,3.54.55,4.52,0,1.73-.62,3.17-1.84,4.34-1.23,1.17-3.02,1.76-5.36,1.76-4.06,0-6.58-.74-7.57-2.22-.99-1.48-1.48-3.38-1.48-5.72,0-2.71.61-5.29,1.84-7.76,1.23-2.46,3.05-4.64,5.45-6.55,2.4-1.91,5.41-3.42,9.05-4.53,3.63-1.11,7.78-1.66,12.46-1.66,5.66,0,10.4.71,14.22,2.12,3.81,1.42,6.89,3.32,9.23,5.72,2.34,2.4,4,5.11,4.99,8.12.98,3.02,1.47,6.19,1.47,9.51v45.97c0,3.57.56,5.97,1.66,7.2,1.11,1.23,2.71,1.85,4.8,1.85,1.35,0,2.77-.25,4.25-.74,1.48-.49,2.89-1.23,4.25-2.22l1.48,2.03Zm-32.31-43.2h-.37c-.25,1.6-2.28,3.2-6.09,4.8l-13.85,5.54c-3.94,1.6-6.95,3.85-9.05,6.74-2.1,2.89-3.14,6.49-3.14,10.8,0,1.84.19,3.75.56,5.72.37,1.97,1.04,3.72,2.03,5.26.98,1.54,2.37,2.8,4.16,3.79,1.78.99,4.09,1.48,6.92,1.48,4.06,0,7.35-.86,9.88-2.59,2.52-1.72,4.43-3.88,5.73-6.46,1.29-2.59,2.15-5.38,2.58-8.4.43-3.02.65-5.75.65-8.22v-18.46Z"/>
        <path class="cls-1" d="m830.01,132.12h14.22s0-127.95,0-127.95h-14.22s0-2.59,0-2.59h30.09s0,130.53,0,130.53h14.22s0,2.59,0,2.59h-44.31s0-2.59,0-2.59Z"/>
        <path class="cls-1" d="m504.87,29.84c0-4.8.49-8.93,1.46-12.44.08-.33.27-1,.6-1.89.88-2.49,2.03-4.62,3.48-6.35.16-.19.32-.35.48-.53,3.39-4.1,12.05-7.64,20.73-5.9.31-.57.61-1.09.89-1.69-2.13-.55-5.26-1.15-8.61-1.01-5.41.23-9.8,1.42-14.6,4.43-4.8,3.02-8.8,6.55-12,10.62-1.23,1.48-2.34,3.11-3.33,4.89-.99,1.78-1.84,3.88-2.58,6.28-.74,2.4-1.32,5.17-1.76,8.31-.43,3.14-.64,6.86-.64,11.17v9.79h-14.22v2.59h14.22v74.03h-9.31v2.59h41.99v-2.59h-16.8V58.09h22.89v-2.59h-22.89v-25.66Z"/>
        <path class="cls-1" d="m552.3,18.84c0,5.29-4.29,9.58-9.58,9.58s-9.58-4.29-9.58-9.58c0-6.89,7.94-7,4.88-15.96,8.64,2.73,14.28,9.73,14.28,15.96Z"/>
        <path class="cls-1" d="m707.37,24.58c0-2.71.96-5.03,2.87-6.95,1.91-1.91,4.23-2.87,6.95-2.87s5.03.96,6.95,2.87c1.91,1.92,2.87,4.23,2.87,6.95s-.96,5.03-2.87,6.95c-1.92,1.92-4.23,2.87-6.95,2.87s-5.03-.96-6.95-2.87c-1.92-1.91-2.87-4.23-2.87-6.95Z"/>
      </g>
      <path class="cls-1" d="m885.76,3.65h-4.79v12.35h-2.05V3.65h-4.82V1.6h11.66v2.05Zm18.06,12.35h-2.05V3.65h-.07l-4.93,12.35h-1.33l-4.79-12.35h-.07v12.35h-2.05V1.6h3.45l4.14,10.36,4.28-10.36h3.42v14.4Z"/>
    </g>
  </g>
</svg>